<svg width="800" height="520" viewBox="0 0 800 520" fill="none" xmlns="http://www.w3.org/2000/svg">
  <rect width="800" height="520" rx="24" fill="#0F1B2D"/>
  <rect x="54" y="62" width="692" height="396" rx="20" fill="#101D31" stroke="#2B3B56"/>
  <rect x="92" y="104" width="132" height="92" rx="16" fill="#FF7A1A" fill-opacity="0.22" stroke="#FF7A1A"/>
  <rect x="242" y="104" width="180" height="92" rx="16" fill="#FF9F43" fill-opacity="0.16" stroke="#FF9F43"/>
  <rect x="444" y="104" width="264" height="92" rx="16" fill="#1A2B46" stroke="#2B3B56"/>
  <rect x="92" y="232" width="616" height="176" rx="16" fill="#111F33" stroke="#2B3B56"/>
  <path d="M126 354C171 316 214 323 252 338C290 353 320 359 356 317C392 275 439 255 488 274C537 293 574 327 640 286" stroke="#FF7A1A" stroke-width="8" stroke-linecap="round"/>
  <circle cx="126" cy="354" r="10" fill="#FF7A1A"/>
  <circle cx="252" cy="338" r="10" fill="#FF9F43"/>
  <circle cx="356" cy="317" r="10" fill="#FF7A1A"/>
  <circle cx="488" cy="274" r="10" fill="#FF9F43"/>
  <circle cx="640" cy="286" r="10" fill="#FF7A1A"/>
  <rect x="122" y="132" width="74" height="12" rx="6" fill="#F5F7FB" fill-opacity="0.92"/>
  <rect x="122" y="152" width="54" height="10" rx="5" fill="#9FB0CA" fill-opacity="0.75"/>
  <rect x="272" y="132" width="94" height="12" rx="6" fill="#F5F7FB" fill-opacity="0.9"/>
  <rect x="272" y="152" width="70" height="10" rx="5" fill="#9FB0CA" fill-opacity="0.75"/>
  <rect x="474" y="132" width="120" height="12" rx="6" fill="#FF7A1A" fill-opacity="0.9"/>
  <rect x="474" y="152" width="95" height="10" rx="5" fill="#FF9F43" fill-opacity="0.85"/>
</svg>
