<svg width="640" height="500" viewBox="0 0 640 500" fill="none" xmlns="http://www.w3.org/2000/svg">
  <rect width="640" height="500" rx="28" fill="#0F1B2D"/>
  <rect x="48" y="74" width="544" height="352" rx="20" fill="#101D31" stroke="#2B3B56"/>
  <rect x="94" y="124" width="170" height="90" rx="16" fill="#FF7A1A" fill-opacity="0.2" stroke="#FF7A1A"/>
  <rect x="293" y="124" width="250" height="90" rx="16" fill="#FF9F43" fill-opacity="0.14" stroke="#FF9F43"/>
  <rect x="94" y="243" width="449" height="112" rx="16" fill="#1A2B46" stroke="#2B3B56"/>
  <path d="M130 208C179 152 218 171 254 194C290 217 331 225 373 188C415 151 468 137 514 160" stroke="#FF7A1A" stroke-width="7" stroke-linecap="round"/>
  <circle cx="130" cy="208" r="10" fill="#FF7A1A"/>
  <circle cx="254" cy="194" r="10" fill="#FF9F43"/>
  <circle cx="373" cy="188" r="10" fill="#FF7A1A"/>
  <circle cx="514" cy="160" r="10" fill="#FF9F43"/>
  <rect x="122" y="270" width="140" height="20" rx="10" fill="#F5F7FB" fill-opacity="0.82"/>
  <rect x="122" y="301" width="210" height="16" rx="8" fill="#9FB0CA" fill-opacity="0.55"/>
  <rect x="352" y="270" width="146" height="20" rx="10" fill="#FF7A1A" fill-opacity="0.8"/>
  <rect x="352" y="301" width="110" height="16" rx="8" fill="#FF9F43" fill-opacity="0.85"/>
</svg>
